{"title":"Evil.Dead.2013.DVDRip.XviD.AC3-TODE","uid":8630930,"size":726877585,"categoryP":"video","categoryS":"movies","magnet":"?xt=urn:btih:fb5746912871d3edce24708001d8dd4bd815114d&amp;dn=Evil.Dead.2013.DVDRip.XviD.AC3-TODE&amp;tr=udp%3A%2F%2Ftracker.openbittorrent.com%3A80&amp;tr=udp%3A%2F%2Fopen.demonii.com%3A1337&amp;tr=udp%3A%2F%2Ftracker.coppersurfer.tk%3A6969&amp;tr=udp%3A%2F%2Fexodus.desync.com%3A6969","seeders":47,"leechers":3,"uploader":"xxxlavalxxx","files":-1,"time":1372628484,"description":"\n\n &lt;a href=&quot;\nhttp://www.imdb.com/title/tt1288558/&quot; rel=&quot;nofollow&quot; target=&quot;_NEW&quot;&gt;\nhttp://www.imdb.com/title/tt1288558/&lt;/a&gt;\n\n\nPlot: Five friends head to a remote cabin, where the discovery of a Book of the Dead leads them to unwittingly summon up demons living in the nearby woods. The evil presence possesses them until only one is left to fight for survival. \n\n\n\nDirector:\n Fede Alvarez \n\nWriters:\n Fede Alvarez (screenplay), Sam Raimi, 1 more credit Â» \n\nStars:\n Jane Levy, Shiloh Fernandez, Jessica Lucas\n\nGenres:\n  Horror \n\nCountry:\n USA \n\nLanguage:\n English \n\n\n\nFormat                                   : AVI\nFormat/Info                              : Audio Video Interleave\nFile size                                : 693 MiB\nDuration                                 : 1h 31mn\nOverall bit rate                         : 1 061 Kbps\nWriting application                      : Lavf55.3.100\n\nVideo\nID                                       : 0\nFormat                                   : MPEG-4 Visual\nFormat profile                           : Simple@L3\nFormat settings, BVOP                    : No\nFormat settings, QPel                    : No\nFormat settings, GMC                     : No warppoints\nFormat settings, Matrix                  : Default (H.263)\nCodec ID                                 : XVID\nCodec ID/Hint                            : XviD\nDuration                                 : 1h 31mn\nBit rate                                 : 923 Kbps\nWidth                                    : 640 pixels\nHeight                                   : 270 pixels\nDisplay aspect ratio                     : 2.35:1\nOriginal display aspect ratio            : 2.40:1\nFrame rate                               : 23.976 fps\nColor space                              : YUV\nChroma subsampling                       : 4:2:0\nBit depth                                : 8 bits\nScan type                                : Progressive\nCompression mode                         : Lossy\nBits/(Pixel*Frame)                       : 0.223\nStream size                              : 603 MiB (87%)\nWriting library                          : XviD 64\n\nAudio\nID                                       : 1\nFormat                                   : AC-3\nFormat/Info                              : Audio Coding 3\nMode extension                           : CM (complete main)\nFormat settings, Endianness              : Big\nCodec ID                                 : 2000\nDuration                                 : 1h 31mn\nBit rate mode                            : Constant\nBit rate                                 : 128 Kbps\nChannel(s)                               : 2 channels\nChannel positions                        : Front: L R\nSampling rate                            : 48.0 KHz\nBit depth                                : 16 bits\nCompression mode                         : Lossy\nStream size                              : 83.6 MiB (12%)\nAlignment                                : Aligned on interleaves\nInterleave, duration                     : 32 ms (0.77 video frame)\n\n\n\n\n\n//bayimg.com/KAnhBAaei\n//bayimg.com/KanHcaaeI\n//bayimg.com/KanHDAAei\n","torrent":{"xt":"urn:btih:fb5746912871d3edce24708001d8dd4bd815114d","amp;dn":"Evil.Dead.2013.DVDRip.XviD.AC3-TODE","amp;tr":["udp%3A%2F%2Ftracker.openbittorrent.com%3A80","udp%3A%2F%2Fopen.demonii.com%3A1337","udp%3A%2F%2Ftracker.coppersurfer.tk%3A6969","udp%3A%2F%2Fexodus.desync.com%3A6969"],"infoHash":"fb5746912871d3edce24708001d8dd4bd815114d","infoHashBuffer":{"type":"Buffer","data":[251,87,70,145,40,113,211,237,206,36,112,128,1,216,221,75,216,21,17,77]},"announce":[],"urlList":[]}}